<mxfile host="app.diagrams.net" agent="Mozilla/5.0 (Macintosh; Intel Mac OS X 10_15_7) AppleWebKit/605.1.15 (KHTML, like Gecko) Version/18.6 Safari/605.1.15" version="28.2.4">
  <diagram name="Page-1" id="xAQIsY0_VnXqZzINXFe8">
    <mxGraphModel dx="1034" dy="784" grid="1" gridSize="10" guides="1" tooltips="1" connect="1" arrows="1" fold="1" page="1" pageScale="1" pageWidth="850" pageHeight="1100" math="0" shadow="0">
      <root>
        <mxCell id="0" />
        <mxCell id="1" parent="0" />
        <mxCell id="ULWezLreUVT2SKYfH0tv-46" style="edgeStyle=orthogonalEdgeStyle;rounded=0;orthogonalLoop=1;jettySize=auto;html=1;exitX=0;exitY=0.5;exitDx=0;exitDy=0;entryX=0.5;entryY=0;entryDx=0;entryDy=0;" edge="1" parent="1" source="ULWezLreUVT2SKYfH0tv-20" target="ULWezLreUVT2SKYfH0tv-22">
          <mxGeometry relative="1" as="geometry" />
        </mxCell>
        <mxCell id="ULWezLreUVT2SKYfH0tv-20" value="Customer" style="html=1;whiteSpace=wrap;" vertex="1" parent="1">
          <mxGeometry x="300" y="280" width="110" height="50" as="geometry" />
        </mxCell>
        <mxCell id="ULWezLreUVT2SKYfH0tv-21" value="Product" style="html=1;whiteSpace=wrap;" vertex="1" parent="1">
          <mxGeometry x="200" y="700" width="110" height="50" as="geometry" />
        </mxCell>
        <mxCell id="ULWezLreUVT2SKYfH0tv-22" value="ShoppingCart" style="html=1;whiteSpace=wrap;" vertex="1" parent="1">
          <mxGeometry x="100" y="470" width="110" height="50" as="geometry" />
        </mxCell>
        <mxCell id="ULWezLreUVT2SKYfH0tv-48" style="edgeStyle=orthogonalEdgeStyle;rounded=0;orthogonalLoop=1;jettySize=auto;html=1;exitX=0.5;exitY=1;exitDx=0;exitDy=0;entryX=0.5;entryY=0;entryDx=0;entryDy=0;" edge="1" parent="1" source="ULWezLreUVT2SKYfH0tv-23" target="ULWezLreUVT2SKYfH0tv-25">
          <mxGeometry relative="1" as="geometry" />
        </mxCell>
        <mxCell id="ULWezLreUVT2SKYfH0tv-50" style="edgeStyle=orthogonalEdgeStyle;rounded=0;orthogonalLoop=1;jettySize=auto;html=1;exitX=1;exitY=0.5;exitDx=0;exitDy=0;entryX=0;entryY=0.5;entryDx=0;entryDy=0;" edge="1" parent="1" source="ULWezLreUVT2SKYfH0tv-23" target="ULWezLreUVT2SKYfH0tv-49">
          <mxGeometry relative="1" as="geometry" />
        </mxCell>
        <mxCell id="ULWezLreUVT2SKYfH0tv-23" value="Order" style="html=1;whiteSpace=wrap;" vertex="1" parent="1">
          <mxGeometry x="520" y="580" width="110" height="50" as="geometry" />
        </mxCell>
        <mxCell id="ULWezLreUVT2SKYfH0tv-45" style="edgeStyle=orthogonalEdgeStyle;rounded=0;orthogonalLoop=1;jettySize=auto;html=1;exitX=0.5;exitY=1;exitDx=0;exitDy=0;entryX=0.5;entryY=0;entryDx=0;entryDy=0;" edge="1" parent="1" source="ULWezLreUVT2SKYfH0tv-24" target="ULWezLreUVT2SKYfH0tv-21">
          <mxGeometry relative="1" as="geometry" />
        </mxCell>
        <mxCell id="ULWezLreUVT2SKYfH0tv-24" value="OrderItem" style="html=1;whiteSpace=wrap;" vertex="1" parent="1">
          <mxGeometry x="200" y="580" width="110" height="50" as="geometry" />
        </mxCell>
        <mxCell id="ULWezLreUVT2SKYfH0tv-25" value="Invoice" style="html=1;whiteSpace=wrap;" vertex="1" parent="1">
          <mxGeometry x="520" y="700" width="110" height="50" as="geometry" />
        </mxCell>
        <mxCell id="ULWezLreUVT2SKYfH0tv-26" value="Payment" style="html=1;whiteSpace=wrap;" vertex="1" parent="1">
          <mxGeometry x="540" y="370" width="110" height="50" as="geometry" />
        </mxCell>
        <mxCell id="ULWezLreUVT2SKYfH0tv-27" value="Shipment" style="html=1;whiteSpace=wrap;" vertex="1" parent="1">
          <mxGeometry x="710" y="430" width="110" height="50" as="geometry" />
        </mxCell>
        <mxCell id="ULWezLreUVT2SKYfH0tv-47" style="edgeStyle=orthogonalEdgeStyle;rounded=0;orthogonalLoop=1;jettySize=auto;html=1;exitX=1;exitY=0.5;exitDx=0;exitDy=0;entryX=0.5;entryY=1;entryDx=0;entryDy=0;" edge="1" parent="1" source="ULWezLreUVT2SKYfH0tv-32" target="ULWezLreUVT2SKYfH0tv-26">
          <mxGeometry relative="1" as="geometry" />
        </mxCell>
        <mxCell id="ULWezLreUVT2SKYfH0tv-32" value="Account" style="html=1;whiteSpace=wrap;" vertex="1" parent="1">
          <mxGeometry x="300" y="470" width="110" height="50" as="geometry" />
        </mxCell>
        <mxCell id="ULWezLreUVT2SKYfH0tv-33" value="" style="endArrow=diamondThin;endFill=1;endSize=24;html=1;rounded=0;exitX=0.5;exitY=0;exitDx=0;exitDy=0;" edge="1" parent="1" source="ULWezLreUVT2SKYfH0tv-32">
          <mxGeometry width="160" relative="1" as="geometry">
            <mxPoint x="400" y="590" as="sourcePoint" />
            <mxPoint x="355" y="330" as="targetPoint" />
          </mxGeometry>
        </mxCell>
        <mxCell id="ULWezLreUVT2SKYfH0tv-40" value="" style="endArrow=diamondThin;endFill=1;endSize=24;html=1;rounded=0;exitX=0.5;exitY=0;exitDx=0;exitDy=0;entryX=0.5;entryY=1;entryDx=0;entryDy=0;" edge="1" parent="1" source="ULWezLreUVT2SKYfH0tv-23" target="ULWezLreUVT2SKYfH0tv-32">
          <mxGeometry width="160" relative="1" as="geometry">
            <mxPoint x="330" y="610" as="sourcePoint" />
            <mxPoint x="490" y="610" as="targetPoint" />
          </mxGeometry>
        </mxCell>
        <mxCell id="ULWezLreUVT2SKYfH0tv-43" value="" style="endArrow=diamondThin;endFill=0;endSize=24;html=1;rounded=0;entryX=0.5;entryY=1;entryDx=0;entryDy=0;exitX=0;exitY=0.5;exitDx=0;exitDy=0;" edge="1" parent="1" source="ULWezLreUVT2SKYfH0tv-24" target="ULWezLreUVT2SKYfH0tv-22">
          <mxGeometry width="160" relative="1" as="geometry">
            <mxPoint x="130" y="700" as="sourcePoint" />
            <mxPoint x="290" y="700" as="targetPoint" />
          </mxGeometry>
        </mxCell>
        <mxCell id="ULWezLreUVT2SKYfH0tv-44" value="" style="endArrow=diamondThin;endFill=1;endSize=24;html=1;rounded=0;exitX=1;exitY=0.5;exitDx=0;exitDy=0;entryX=0;entryY=0.5;entryDx=0;entryDy=0;" edge="1" parent="1" source="ULWezLreUVT2SKYfH0tv-24" target="ULWezLreUVT2SKYfH0tv-23">
          <mxGeometry width="160" relative="1" as="geometry">
            <mxPoint x="340" y="700" as="sourcePoint" />
            <mxPoint x="500" y="700" as="targetPoint" />
          </mxGeometry>
        </mxCell>
        <mxCell id="ULWezLreUVT2SKYfH0tv-49" value="Reciept" style="html=1;whiteSpace=wrap;" vertex="1" parent="1">
          <mxGeometry x="700" y="580" width="110" height="50" as="geometry" />
        </mxCell>
        <mxCell id="ULWezLreUVT2SKYfH0tv-52" value="" style="endArrow=diamondThin;endFill=1;endSize=24;html=1;rounded=0;entryX=0.5;entryY=0;entryDx=0;entryDy=0;exitX=0;exitY=0.5;exitDx=0;exitDy=0;" edge="1" parent="1" source="ULWezLreUVT2SKYfH0tv-27" target="ULWezLreUVT2SKYfH0tv-23">
          <mxGeometry width="160" relative="1" as="geometry">
            <mxPoint x="660" y="690" as="sourcePoint" />
            <mxPoint x="820" y="690" as="targetPoint" />
          </mxGeometry>
        </mxCell>
      </root>
    </mxGraphModel>
  </diagram>
</mxfile>
